<svg xmlns="http://www.w3.org/2000/svg" version="1.1" xmlns:xlink="http://www.w3.org/1999/xlink" xmlns:svgjs="http://svgjs.dev/svgjs" width="128" height="128" viewBox="0 0 128 128"><g transform="matrix(0.8046875,0,0,0.8046875,12.221578124999994,12.221578124999994)"><svg viewBox="0 0 96 96" data-background-color="#ffffff" preserveAspectRatio="xMidYMid meet" height="128" width="128" xmlns="http://www.w3.org/2000/svg" xmlns:xlink="http://www.w3.org/1999/xlink"><g id="tight-bounds" transform="matrix(1,0,0,1,0.25950000000000273,0.25950000000000273)"><svg viewBox="0 0 95.481 95.481" height="95.481" width="95.481"><g><svg viewBox="0 0 95.481 95.481" height="95.481" width="95.481"><g><svg viewBox="0 0 95.481 95.481" height="95.481" width="95.481"><g id="textblocktransform"><svg viewBox="0 0 95.481 95.481" height="95.481" width="95.481" id="textblock"><g><svg viewBox="0 0 95.481 95.481" height="95.481" width="95.481"><g><svg viewBox="0 0 95.481 95.481" height="95.481" width="95.481"><g><svg xmlns="http://www.w3.org/2000/svg" xmlns:xlink="http://www.w3.org/1999/xlink" version="1.1" x="0" y="0" viewBox="6.593 8.439 82.814 82.814" enable-background="new 0 0 96 99.818" xml:space="preserve" height="95.481" width="95.481" class="icon-icon-0" data-fill-palette-color="accent" id="icon-0"><g fill="#50b68f" data-fill-palette-color="accent"><path fill="#50b68f" d="M6.593 77.364C6.593 85.032 12.812 91.253 20.484 91.253H45.795V52.051H6.593zM19.644 62.451H24.568L27.267 66.643 30.11 62.451H34.847L29.679 69.672 35.321 77.697H30.368L27.267 72.974 24.138 77.697H19.415L24.913 69.843z" data-fill-palette-color="accent"></path><path fill="#50b68f" d="M75.518 8.44H50.205V47.64H89.406V22.33C89.406 14.659 83.188 8.44 75.518 8.44M73.016 30.759H65.091V26.726H73.016z" data-fill-palette-color="accent"></path><path fill="#50b68f" d="M6.593 22.33V47.642L45.794 47.641V8.44L20.484 8.439C12.812 8.439 6.593 14.659 6.593 22.33M25.566 22.219H29.241V27.69H34.768V31.464H29.241V36.935H25.566V31.464H20.053V27.69H25.566z" data-fill-palette-color="accent"></path><path fill="#50b68f" d="M50.205 91.253H75.517C83.189 91.253 89.407 85.032 89.407 77.364V52.051H50.205zM69.092 58.905H72.121L66.854 80.67H63.881z" data-fill-palette-color="accent"></path></g></svg></g></svg></g></svg></g></svg></g></svg></g><g></g></svg></g><defs></defs></svg><rect width="95.481" height="95.481" fill="none" stroke="none" visibility="hidden"></rect></g></svg></g></svg>